<svg width="48" height="48" viewBox="0 0 48 48" fill="none" xmlns="http://www.w3.org/2000/svg">
<rect width="48" height="48" rx="10" fill="#1B3A5C"/>
<g transform="translate(2, 4) scale(0.94)">
<path d="M24.5 6.5C24.5 6.5 34.1 -0.4 43.3 8.4C50.2 15 46.4 31.9 37.1 31.9C37.1 31.9 35.3 32.3 30.8 30.2C26.3 28.1 21.1 26.7 14.6 30.7C8.2 34.8 -1 30.3 0.1 13.9C0.6 6.1 6.7 0 6.7 0H23.4C23.4 0 13.8 8.8 13.8 16.1C13.8 23.4 19.4 26.3 23.4 26.3C27.4 26.3 33.5 23.3 33.5 16.1C33.5 8.9 27 6.6 24.5 6.5Z" fill="#FCCD00"/>
<path d="M0 29.7V46.2H46.9V29.2C46.9 29.2 45 35.7 36.3 35.7C29.2 35.7 28 31.3 23.5 31.3C19 31.3 17.9 35.4 9 35.4C2.5 35.4 0 29.7 0 29.7Z" fill="#E60C17"/>
</g>
</svg>
